<?xml version="1.0" encoding="UTF-8" standalone="no"?>
<svg
   viewBox="-13.5000 0.0000 25.0000 20.0000"
   version="1.1"
   id="svg45"
   sodipodi:docname="file-svg.svg"
  
  
   xmlns:inkscape="http://www.inkscape.org/namespaces/inkscape"
   xmlns:sodipodi="http://sodipodi.sourceforge.net/DTD/sodipodi-0.dtd"
   xmlns="http://www.w3.org/2000/svg"
   xmlns:svg="http://www.w3.org/2000/svg">
  <sodipodi:namedview
     id="namedview1"
     pagecolor="#ffffff"
     bordercolor="#000000"
     borderopacity="0.25"
     inkscape:showpageshadow="2"
     inkscape:pageopacity="0.0"
     inkscape:pagecheckerboard="0"
     inkscape:deskcolor="#d1d1d1" />
  <defs
     id="defs45" />
  <mask
     id="ft-svg">
    <path
       d="M 13,9 V 3.5 L 18.5,9 M 6,2 C 4.89,2 4,2.89 4,4 v 16 a 2,2 0 0 0 2,2 h 12 a 2,2 0 0 0 2,-2 V 8 L 14,2 Z"
       fill="#ffffff"
       id="path1" />
    <g
       fill="#000000"
       id="g45">
      <rect
         x="6.2600002"
         y="13.62"
         id="rect1"
        
         />
      <rect
         x="7.0300002"
         y="13.62"
         id="rect2"
        
         />
      <rect
         x="7.79"
         y="13.62"
         id="rect3"
        
         />
      <rect
         x="8.5600004"
         y="13.62"
         id="rect4"
        
         />
      <rect
         x="5.5"
         y="14.39"
         id="rect5"
        
         />
      <rect
         x="5.5"
         y="15.15"
         id="rect6"
        
         />
      <rect
         x="6.2600002"
         y="15.92"
         id="rect7"
        
         />
      <rect
         x="7.0300002"
         y="15.92"
         id="rect8"
        
         />
      <rect
         x="7.79"
         y="15.92"
         id="rect9"
        
         />
      <rect
         x="8.5600004"
         y="16.68"
         id="rect10"
        
         />
      <rect
         x="8.5600004"
         y="17.450001"
         id="rect11"
        
         />
      <rect
         x="5.5"
         y="18.209999"
         id="rect12"
        
         />
      <rect
         x="6.2600002"
         y="18.209999"
         id="rect13"
        
         />
      <rect
         x="7.0300002"
         y="18.209999"
         id="rect14"
        
         />
      <rect
         x="7.79"
         y="18.209999"
         id="rect15"
        
         />
      <rect
         x="10.09"
         y="13.62"
         id="rect16"
        
         />
      <rect
         x="13.15"
         y="13.62"
         id="rect17"
        
         />
      <rect
         x="10.09"
         y="14.39"
         id="rect18"
        
         />
      <rect
         x="13.15"
         y="14.39"
         id="rect19"
        
         />
      <rect
         x="10.09"
         y="15.15"
         id="rect20"
        
         />
      <rect
         x="13.15"
         y="15.15"
         id="rect21"
        
         />
      <rect
         x="10.09"
         y="15.92"
         id="rect22"
        
         />
      <rect
         x="13.15"
         y="15.92"
         id="rect23"
        
         />
      <rect
         x="10.85"
         y="16.68"
         id="rect24"
        
         />
      <rect
         x="12.38"
         y="16.68"
         id="rect25"
        
         />
      <rect
         x="10.85"
         y="17.450001"
         id="rect26"
        
         />
      <rect
         x="12.38"
         y="17.450001"
         id="rect27"
        
         />
      <rect
         x="11.62"
         y="18.209999"
         id="rect28"
        
         />
      <rect
         x="15.44"
         y="13.62"
         id="rect29"
        
         />
      <rect
         x="16.209999"
         y="13.62"
         id="rect30"
        
         />
      <rect
         x="16.969999"
         y="13.62"
         id="rect31"
        
         />
      <rect
         x="14.68"
         y="14.39"
         id="rect32"
        
         />
      <rect
         x="17.74"
         y="14.39"
         id="rect33"
        
         />
      <rect
         x="14.68"
         y="15.15"
         id="rect34"
        
         />
      <rect
         x="14.68"
         y="15.92"
         id="rect35"
        
         />
      <rect
         x="16.209999"
         y="15.92"
         id="rect36"
        
         />
      <rect
         x="16.969999"
         y="15.92"
         id="rect37"
        
         />
      <rect
         x="17.74"
         y="15.92"
         id="rect38"
        
         />
      <rect
         x="14.68"
         y="16.68"
         id="rect39"
        
         />
      <rect
         x="17.74"
         y="16.68"
         id="rect40"
        
         />
      <rect
         x="14.68"
         y="17.450001"
         id="rect41"
        
         />
      <rect
         x="17.74"
         y="17.450001"
         id="rect42"
        
         />
      <rect
         x="15.44"
         y="18.209999"
         id="rect43"
        
         />
      <rect
         x="16.209999"
         y="18.209999"
         id="rect44"
        
         />
      <rect
         x="16.969999"
         y="18.209999"
         id="rect45"
        
         />
    </g>
  </mask>
  <path
     d="M 13,9 V 3.5 L 18.5,9 M 6,2 C 4.89,2 4,2.89 4,4 v 16 a 2,2 0 0 0 2,2 h 12 a 2,2 0 0 0 2,-2 V 8 L 14,2 Z"
     fill="currentColor"
     mask="url(#ft-svg)"
     id="path45"
     transform="translate(-13,-2)" />
</svg>
