<?xml version="1.0" encoding="UTF-8" standalone="no"?>
<svg
   id="Layer_1"
   version="1.1"
   viewBox="0 0 32 32"
   xmlns="http://www.w3.org/2000/svg"
   xmlns:svg="http://www.w3.org/2000/svg">
  <defs
     id="defs1" />
  <!-- Generator: Adobe Illustrator 30.3.0, SVG Export Plug-In . SVG Version: 2.1.3 Build 182)  -->
  <path
     d="M16,.24L2.35,8.12v15.76l13.65,7.88,13.65-7.88v-15.76L16,.24ZM22.78,7.82l.75-.43.75.43v.72l-.75.43-.75-.43v-.72ZM7.72,7.82l.75-.43.75.43v.72l-.75.43-.75-.43v-.72ZM13.46,26.36l-2.21-1.27v-.07l2.21.02v1.32ZM17.11,27.2l-1.11.63-1.11-.63v-.68l2.21.02v.65ZM20.74,25.09l-2.21,1.27v-1.34l2.21.02v.05ZM27.85,18.55l-5.08,2.88-2.03-1.17v2.19s0,.62,0,.62l-2.21-.02v-4.07l-1.42-.82v6.42l-2.21-.02v-6.22l-1.43.93v3.8l-2.21-.02v-2.24l-2.04,1.42-5.06-2.92v-5.85l5.07-2.93,6.65,3.84.06.03h.15l2.34-1.63v-4.16s-2.42-1.4-2.42-1.4l-2.42,1.4v2.16l-2.64-1.53v-2.16l5.07-2.93,5.06,2.92v3.8s0,3.06,0,3.06l-2.69,1.88,4.4,2.54,2.44-1.35v-2.84l-2.19-1.26v-3.05s4.83,2.79,4.83,2.79v5.89Z"
     fill="currentColor"
     id="path1" />
  <polygon
     points="6.8 14.99 6.8 17.79 9.23 19.19 13.3 16.36 13.56 16.1 9.23 13.59 6.8 14.99"
     fill="currentColor"
     id="polygon1" />
</svg>
